<?xml version="1.0" encoding="utf-8"?>
<!-- Generator: Adobe Illustrator 21.1.0, SVG Export Plug-In . SVG Version: 6.00 Build 0)  -->
<svg version="1.1" id="Layer_1" xmlns="http://www.w3.org/2000/svg" xmlns:xlink="http://www.w3.org/1999/xlink" x="0px" y="0px"
     viewBox="0 0 570 176" style="enable-background:new 0 0 570 176;" xml:space="preserve">
<style type="text/css">
       .st0 {
        fill: none;
        stroke: #000000;
        stroke-width: 3;
        stroke-miterlimit: 10;
    }

    .st1 {
        fill-rule: evenodd;
        clip-rule: evenodd;
        fill: #D3D3D3 ;
        stroke: #231F20;
        stroke-width: 3;
        stroke-linecap: round;
        stroke-miterlimit: 10;
    }

    .st2 {
        fill: none;
        stroke: #231F20;
        stroke-width: 3;
        stroke-linecap: round;
        stroke-miterlimit: 10;
    }

    #l1,
    #l2,
    #l3,
    #l4,
    #l5,
    #l6,
    #l7,
    #l8,
    #l9,
    #l10,
    #l11,
    #l12,
    #l13,
    #l14
     {
        stroke-dasharray: 650;
        stroke-dashoffset: 0;
        -webkit-animation: dash 2s linear forwards;
        animation: dash 2s linear forwards;
    }

    @-webkit-keyframes dash {
        from {
            stroke-dashoffset: 1000;
        }
        to {
            stroke-dashoffset: 0;
        }
    }
    #l2{
    background-color:#D3D3D3 !important;
    }

</style>
<!-- <line id="l1" class="st0" x1="1" y1="170.5" x2="569" y2="170.5"/> -->
<circle id="l2" class="st1" cx="75" cy="89.5" r="64.5"/>
<line id="l3" class="st0" x1="165.5" y1="24.5" x2="165.5" y2="153.5"/>
<line id="l4" class="st0" x1="252.5" y1="24.5" x2="252.5" y2="153.5"/>
<line id="l5" class="st0" x1="263.5" y1="153.5" x2="301.5" y2="24.5"/>
<line id="l6" class="st0" x1="301.5" y1="24.5" x2="344.5" y2="153.5"/>
<line id="l7" class="st0" x1="358.5" y1="153.5" x2="358.5" y2="24.5"/>
<line id="l8" class="st0" x1="447.5" y1="153.5" x2="403.5" y2="88.5"/>
<line id="l9" class="st0" x1="477.5" y1="153.5" x2="514.5" y2="24.5"/>
<line id="l10" class="st0" x1="514.5" y1="24.5" x2="558.5" y2="153.5"/>
<path id="l11" class="st0" d="M415.5,75.5"/>
<line id="l12" class="st2" x1="0.5" y1="88.5" x2="568.5" y2="88.5"/>
<!-- <line id="l13" class="st0" x1="2" y1="7.5" x2="570" y2="7.5"/> -->
<path id="l14" class="st0" d="M399.3,88.5c23.3-6.1,36-26.9,32.2-42.9c-4.4-18.2-31.2-32.7-57.4-22"/>
</svg>
